<svg version="1.1" id="Layer_1" xmlns="http://www.w3.org/2000/svg" xmlns:xlink="http://www.w3.org/1999/xlink" x="0px" y="0px" width="100%" viewBox="0 0 1251 1251" enable-background="new 0 0 1251 1251" xml:space="preserve">
	<path class="background" fill="none" opacity="1.000000" stroke="none" d=" M660.000000,1252.000000   C440.000000,1252.000000 220.500000,1252.000000 1.000000,1252.000000   C1.000000,835.000000 1.000000,418.000000 1.000000,1.000000   C418.000000,1.000000 835.000000,1.000000 1252.000000,1.000000   C1252.000000,418.000000 1252.000000,835.000000 1252.000000,1252.000000   C1054.833374,1252.000000 857.666687,1252.000000 660.000000,1252.000000  M626.605042,658.192139   C628.428772,660.901062 630.183899,663.659180 632.087646,666.310730   C643.457092,682.146240 654.694885,698.080505 666.322388,713.724731   C672.213806,721.651245 675.345093,729.740906 675.228882,740.043030   C674.704590,786.531921 674.999023,833.030090 675.000916,879.524902   C675.001221,887.630371 677.399292,890.110352 685.715271,889.962280   C695.321960,889.791199 704.924133,889.055481 714.527344,889.072876   C725.631531,889.093018 736.733093,889.755371 747.839050,889.969421   C755.482178,890.116760 757.997253,887.532349 757.997742,880.010925   C758.001770,817.684509 758.090393,755.357727 757.815674,693.032532   C757.795288,688.417664 756.157837,683.124573 753.555603,679.321228   C739.966125,659.458618 725.846069,639.958374 711.861938,620.366699   C701.589966,605.975586 691.243164,591.637817 681.554749,576.928040   C682.025818,576.456360 682.572876,576.039307 682.956970,575.505127   C698.645508,553.684998 714.291931,531.834473 730.003357,510.030792   C744.385498,490.071930 758.805664,470.140228 773.274475,450.244141   C777.704956,444.151794 780.215942,437.919067 780.188416,429.918121   C779.887817,342.439301 780.000000,254.959061 780.000000,167.479218   C780.000000,166.312820 779.913757,165.138824 780.015320,163.981339   C780.477417,158.714920 782.523926,153.556564 790.302917,153.868484   C802.613647,154.362122 814.958618,153.995590 827.289124,154.006363   C828.616760,154.007523 829.962463,154.256775 831.267761,154.108658   C833.337769,153.873779 836.703247,153.956024 837.144287,152.905991   C837.926758,151.042969 837.663574,147.959061 836.544556,146.216431   C832.064575,139.239731 827.132568,132.549805 822.286438,125.812286   C802.214539,97.906113 782.085693,70.040878 762.039490,42.116268   C756.157776,33.922958 750.510071,25.562050 744.698425,17.317955   C740.749695,11.716649 738.599426,11.609153 733.877991,16.633272   C733.206055,17.348297 732.587463,18.124144 732.021301,18.926319   C722.821594,31.959812 713.719727,45.063267 704.426880,58.029907   C683.929810,86.630127 663.330444,115.157021 642.795166,143.729904   C640.499084,146.924683 638.346985,150.222900 635.768372,154.000092   C653.963135,154.000092 671.124573,154.054153 688.285278,153.964386   C692.925354,153.940109 695.966797,155.988449 696.887817,160.379288   C697.656128,164.042465 697.991028,167.870926 697.939087,171.618164   C697.766907,184.048141 697.072021,196.473938 697.045654,208.902328   C696.936707,260.223633 696.996399,311.545258 697.016479,362.866760   C697.017151,364.506927 697.419556,366.152191 697.366333,367.786316   C697.057129,377.276245 697.924316,387.044189 695.889343,396.158997   C694.382812,402.907043 689.502869,409.109833 685.370850,415.028595   C665.722412,443.173279 645.815491,471.137482 625.379028,498.848724   C616.212219,486.093964 607.048096,473.337250 597.878052,460.584869   C584.875549,442.502838 571.673340,424.559082 559.009521,406.242981   C556.068054,401.988647 553.329834,396.492676 553.261108,391.529785   C552.772095,356.217987 552.975952,320.896179 553.021790,285.577667   C553.030518,278.830536 554.944397,277.012115 561.539429,277.005035   C576.366577,276.989075 591.194153,277.050537 606.020325,276.932129   C607.754944,276.918335 610.790833,276.226379 610.949158,275.408539   C611.314819,273.519562 610.842468,270.971436 609.730042,269.372375   C601.408813,257.410797 592.827332,245.630676 584.368286,233.764526   C561.941650,202.304764 539.533142,170.832016 517.124146,139.359650   C513.847351,134.757568 509.700134,134.579117 506.471985,139.129379   C483.079468,172.102737 459.741241,205.114639 436.365143,238.099640   C428.886261,248.652756 421.265869,259.107056 413.924347,269.754211   C412.911926,271.222473 412.590607,273.685730 413.028839,275.414703   C413.244598,276.265839 415.924255,276.916229 417.496399,276.932404   C429.490112,277.055664 441.485657,277.007355 453.480621,276.989532   C454.802734,276.987549 456.162872,277.014496 457.440460,276.733276   C465.745636,274.905151 470.510559,278.386627 470.988586,286.744232   C471.055084,287.906647 471.007355,289.076141 470.998810,290.242249   C470.666870,335.661499 470.320984,381.080658 470.011078,426.500061   C469.953522,434.935913 472.263824,442.745331 477.152496,449.613403   C494.715088,474.286926 512.384155,498.884674 530.011108,523.512451   C543.064514,541.750244 556.114929,559.990173 568.794983,578.804504   C568.391663,579.494690 568.042053,580.223633 567.577026,580.869385   C556.345947,596.466064 545.105652,612.056152 533.860291,627.642639   C523.472473,642.040588 513.012756,656.387146 502.714417,670.848755   C498.231140,677.144531 492.958435,683.054993 492.966827,691.600830   C493.028290,754.240234 492.995697,816.879700 493.005310,879.519165   C493.006561,887.604431 495.446289,890.109009 503.645264,889.967407   C515.572876,889.761414 527.495728,889.122864 539.422363,889.071533   C547.847717,889.035278 556.273315,889.809753 564.703491,889.961182   C573.792969,890.124390 575.998535,887.788635 575.998962,878.671143   C576.001221,830.858582 576.039429,783.045898 575.952454,735.233459   C575.940979,728.932983 577.541138,723.291748 581.237305,718.283813   C596.126587,698.110596 611.073669,677.980225 626.605042,658.192139  M405.489349,940.991211   C399.604309,934.108215 393.623657,927.304260 387.852875,920.326782   C373.178101,902.583496 360.809845,883.274963 350.056091,862.970276   C337.756561,839.746887 328.302155,815.388672 322.348450,789.729187   C318.029175,771.114136 315.542725,752.250732 315.084686,733.165222   C314.902496,725.573242 315.414398,717.936951 316.063354,710.359680   C316.889801,700.710205 317.644012,691.003174 319.375946,681.493408   C322.834747,662.501770 327.612305,643.739990 335.232483,625.996704   C342.202209,609.767883 349.581665,593.567993 358.474762,578.345154   C373.366028,552.854675 394.655914,532.112000 412.691620,508.929688   C417.879242,502.261749 418.364197,499.587524 413.375000,492.897339   C386.141815,456.379547 358.919159,419.853851 331.705780,383.321228   C328.388275,378.867584 324.843658,378.661469 321.421600,383.081177   C310.480255,397.212280 299.558990,411.360321 288.783264,425.617645   C283.174652,433.038269 280.869446,433.302429 272.438782,428.211426   C257.446472,419.158020 242.280685,410.389252 227.114822,401.627167   C221.941254,398.638123 220.053757,399.063751 217.000717,404.217377   C208.234695,419.014496 199.666534,433.929077 191.047699,448.813171   C181.611008,465.109589 172.237198,481.442535 162.774139,497.723602   C155.697815,509.898376 148.141144,521.814392 141.575043,534.255493   C138.830978,539.454834 139.758759,541.520752 145.100861,544.587280   C160.157013,553.229858 175.221237,561.860107 190.191498,570.649841   C197.020920,574.659790 197.202881,576.315613 195.128021,583.976379   C190.564911,600.824036 186.247635,617.739807 182.002747,634.671143   C180.582214,640.337036 177.628922,642.989319 171.573212,642.994751   C154.574188,643.009888 137.575119,642.998291 120.576080,643.000732   C112.583771,643.001953 111.001205,644.570740 111.000908,652.503479   C110.999092,700.500793 110.999924,748.498108 111.000389,796.495422   C111.000397,797.995300 110.764450,799.544678 111.059380,800.984802   C111.666687,803.950012 112.563156,806.906860 116.418434,807.000916   C119.611565,807.078857 122.808350,807.002441 126.003517,807.002075   C141.335983,807.000122 156.668945,806.931030 172.000687,807.037048   C177.705414,807.076477 180.642151,809.967651 181.997879,815.296570   C186.381912,832.528442 190.843658,849.742371 195.509018,866.899780   C197.106445,872.774475 196.476364,875.889404 191.341843,878.852051   C176.727509,887.284302 162.092590,895.685303 147.337509,903.867310   C140.239319,907.803406 138.999664,911.106445 143.025253,918.072815   C151.382492,932.535278 159.781128,946.973816 168.147003,961.431335   C184.224716,989.216003 200.300034,1017.002136 216.353989,1044.800659   C218.905563,1049.218872 223.416748,1050.612793 228.012085,1047.974243   C242.641556,1039.574219 257.441376,1031.436279 271.715302,1022.465027   C280.115631,1017.185364 281.355286,1018.808960 287.488251,1024.993652   C298.978699,1036.580811 310.359528,1048.288330 322.180481,1059.530884   C327.549072,1064.636963 329.299316,1068.080811 326.402496,1073.028687   C317.714935,1087.867554 308.973083,1102.674805 300.216309,1117.472900   C296.282135,1124.121094 297.270111,1128.100464 304.094574,1132.007935   C327.836273,1145.601562 351.641418,1159.084839 375.335907,1172.760010   C392.351440,1182.580444 409.210663,1192.671387 426.188782,1202.557251   C428.576324,1203.947388 431.143890,1205.308228 433.802216,1205.898682   C440.623474,1207.413452 442.347229,1201.589844 444.841553,1197.375000   C453.179382,1183.285767 461.497498,1169.177979 469.429260,1154.859131   C471.770447,1150.632568 474.890625,1150.359863 478.553314,1151.321167   C496.537170,1156.041626 514.473877,1160.941772 532.433960,1165.752930   C539.776001,1167.719727 539.997864,1167.959351 539.999084,1175.464966   C540.001953,1192.963989 540.005493,1210.463013 539.996216,1227.962036   C539.993835,1232.366699 541.045959,1236.007812 546.377625,1236.106689   C551.242432,1236.197021 556.111694,1236.007324 560.979004,1236.006104   C601.310059,1235.995483 641.641174,1235.971436 681.972107,1236.043701   C686.076904,1236.051025 690.186890,1236.998169 694.283508,1236.921509   C700.866821,1236.798462 704.673340,1234.061401 704.884460,1229.146240   C705.081726,1224.554565 704.281067,1219.929199 704.218933,1215.314819   C704.120544,1208.008423 704.282288,1200.698730 704.313782,1193.390381   C704.334900,1188.480957 704.923584,1183.477905 704.180542,1178.683838   C703.095642,1171.683350 706.176636,1166.135620 713.256165,1165.095825   C730.470825,1162.567505 747.127197,1158.017578 763.438965,1152.040161   C770.103760,1149.597900 772.387634,1150.282227 776.115295,1156.516602   C784.858093,1171.138794 793.353760,1185.909058 801.905090,1200.645020   C805.335449,1206.556274 808.986206,1207.899536 814.861511,1204.550659   C827.805786,1197.172607 840.593933,1189.521118 853.475281,1182.032104   C871.313843,1171.661011 889.160645,1161.303711 907.040405,1151.003662   C918.819214,1144.218262 930.700195,1137.609741 942.456482,1130.785889   C946.819153,1128.253662 947.786255,1124.415161 945.418518,1119.924316   C943.357422,1116.015259 941.089966,1112.214111 938.884216,1108.382324   C932.020325,1096.458740 924.968811,1084.637207 918.431152,1072.537720   C917.265930,1070.380981 917.211609,1066.497803 918.414734,1064.454102   C920.178223,1061.458496 923.551697,1059.416992 926.216125,1056.944214   C932.530518,1051.084106 939.033630,1045.408813 945.076782,1039.280518   C950.281311,1034.002686 955.007751,1028.246948 959.845886,1022.616760   C963.219055,1018.691223 966.511414,1018.612427 970.975342,1021.291138   C985.716003,1030.136597 1000.668701,1038.630981 1015.600647,1047.153931   C1021.884155,1050.740601 1024.733154,1050.202515 1028.298340,1044.223755   C1036.015747,1031.281616 1043.429810,1018.158691 1050.974365,1005.113403   C1060.402466,988.811279 1069.823486,972.505188 1079.272583,956.215210   C1086.750977,943.322693 1094.425903,930.540955 1101.703369,917.536499   C1105.740234,910.322876 1104.623291,907.810974 1097.313599,903.697632   C1082.178955,895.180420 1067.088623,886.584106 1052.004150,877.977966   C1048.576782,876.022522 1047.309326,873.080078 1048.383179,869.177490   C1053.229614,851.564819 1058.086426,833.954834 1062.862427,816.322998   C1064.872681,808.901611 1067.051392,807.023438 1074.431885,807.006042   C1084.764648,806.981750 1095.097412,806.993103 1105.430176,807.002747   C1110.929321,807.007874 1116.441284,806.810120 1121.924683,807.114563   C1131.091797,807.623596 1134.043945,807.069092 1133.954346,797.020996   C1133.775146,776.915833 1133.203735,756.813965 1133.064941,736.708862   C1133.009033,728.607117 1133.895264,720.502014 1133.949829,712.395691   C1134.087891,691.897766 1134.061157,671.398010 1133.957764,650.899658   C1133.928955,645.185425 1131.424805,643.010986 1125.615601,643.005798   C1107.783203,642.989929 1089.950928,643.013000 1072.118530,642.992004   C1066.750488,642.985718 1064.008789,640.994446 1063.093262,635.804932   C1059.793823,617.103516 1055.212646,598.757996 1048.471680,580.981384   C1047.097900,577.358459 1048.113892,574.466614 1051.272949,572.377625   C1053.178345,571.117676 1055.233032,570.083496 1057.220703,568.948242   C1071.302002,560.906677 1085.419434,552.927307 1099.444824,544.789307   C1104.235718,542.009521 1105.183594,538.311646 1102.716309,533.458679   C1101.455444,530.978638 1100.009888,528.590088 1098.598145,526.189453   C1087.642944,507.560364 1076.561035,489.004730 1065.742554,470.296661   C1053.360352,448.884613 1041.237549,427.322784 1028.937744,405.862823   C1025.845459,400.467285 1021.043030,399.464935 1016.582825,402.937012   C1003.118958,413.417908 989.681458,423.934326 976.106812,434.270325   C972.743286,436.831390 969.059937,438.442932 965.060181,434.671814   C958.692322,428.667969 952.042847,422.964203 945.580444,417.059052   C936.905518,409.132019 928.366760,401.054810 919.632080,393.194885   C913.954468,388.085815 909.252625,388.883453 904.924011,395.234100   C903.443542,397.406097 901.741638,399.426208 900.164062,401.533112   C882.486206,425.143433 864.776123,448.729828 847.161743,472.387451   C842.178162,479.080780 837.163574,485.788239 832.741028,492.851074   C828.826965,499.101898 829.484375,502.033997 834.640015,507.093719   C837.344971,509.748352 840.675293,511.831512 843.089661,514.704956   C853.553345,527.158508 864.329590,539.405518 873.971619,552.480347   C888.629333,572.356934 899.817932,594.247192 908.713257,617.304382   C920.441162,647.703674 926.665100,679.247253 927.880066,711.728943   C928.300537,722.971558 927.612061,734.283142 926.919495,745.531799   C926.273193,756.029114 925.665100,766.616028 923.771973,776.930725   C920.055664,797.178467 914.691223,817.002869 907.120850,836.256836   C893.395691,871.164246 874.065857,902.592102 848.933533,930.285217   C838.941223,941.295837 827.543518,951.075928 816.412170,960.997314   C799.046387,976.475586 779.507446,988.973389 758.579285,998.854065   C742.222961,1006.576172 725.203735,1013.163269 707.985352,1018.726807   C682.891113,1026.835205 656.768188,1029.991333 630.461914,1030.885742   C619.881226,1031.245483 609.248108,1030.501587 598.656189,1029.935059   C591.765686,1029.566406 584.805908,1029.128418 578.053711,1027.814331   C562.836304,1024.852661 547.620178,1021.753418 532.600769,1017.934692   C508.158081,1011.720093 485.389709,1001.201965 463.916229,988.195251   C442.576782,975.269653 423.199585,959.668152 405.489349,940.991211  z"/>
	<path class="blue" fill="#3d5a80" opacity="1.000000" stroke="none" d=" M405.742035,941.242310   C423.199585,959.668152 442.576782,975.269653 463.916229,988.195251   C485.389709,1001.201965 508.158081,1011.720093 532.600769,1017.934692   C547.620178,1021.753418 562.836304,1024.852661 578.053711,1027.814331   C584.805908,1029.128418 591.765686,1029.566406 598.656189,1029.935059   C609.248108,1030.501587 619.881226,1031.245483 630.461914,1030.885742   C656.768188,1029.991333 682.891113,1026.835205 707.985352,1018.726807   C725.203735,1013.163269 742.222961,1006.576172 758.579285,998.854065   C779.507446,988.973389 799.046387,976.475586 816.412170,960.997314   C827.543518,951.075928 838.941223,941.295837 848.933533,930.285217   C874.065857,902.592102 893.395691,871.164246 907.120850,836.256836   C914.691223,817.002869 920.055664,797.178467 923.771973,776.930725   C925.665100,766.616028 926.273193,756.029114 926.919495,745.531799   C927.612061,734.283142 928.300537,722.971558 927.880066,711.728943   C926.665100,679.247253 920.441162,647.703674 908.713257,617.304382   C899.817932,594.247192 888.629333,572.356934 873.971619,552.480347   C864.329590,539.405518 853.553345,527.158508 843.089661,514.704956   C840.675293,511.831512 837.344971,509.748352 834.640015,507.093719   C829.484375,502.033997 828.826965,499.101898 832.741028,492.851074   C837.163574,485.788239 842.178162,479.080780 847.161743,472.387451   C864.776123,448.729828 882.486206,425.143433 900.164062,401.533112   C901.741638,399.426208 903.443542,397.406097 904.924011,395.234100   C909.252625,388.883453 913.954468,388.085815 919.632080,393.194885   C928.366760,401.054810 936.905518,409.132019 945.580444,417.059052   C952.042847,422.964203 958.692322,428.667969 965.060181,434.671814   C969.059937,438.442932 972.743286,436.831390 976.106812,434.270325   C989.681458,423.934326 1003.118958,413.417908 1016.582825,402.937012   C1021.043030,399.464935 1025.845459,400.467285 1028.937744,405.862823   C1041.237549,427.322784 1053.360352,448.884613 1065.742554,470.296661   C1076.561035,489.004730 1087.642944,507.560364 1098.598145,526.189453   C1100.009888,528.590088 1101.455444,530.978638 1102.716309,533.458679   C1105.183594,538.311646 1104.235718,542.009521 1099.444824,544.789307   C1085.419434,552.927307 1071.302002,560.906677 1057.220703,568.948242   C1055.233032,570.083496 1053.178345,571.117676 1051.272949,572.377625   C1048.113892,574.466614 1047.097900,577.358459 1048.471680,580.981384   C1055.212646,598.757996 1059.793823,617.103516 1063.093262,635.804932   C1064.008789,640.994446 1066.750488,642.985718 1072.118530,642.992004   C1089.950928,643.013000 1107.783203,642.989929 1125.615601,643.005798   C1131.424805,643.010986 1133.928955,645.185425 1133.957764,650.899658   C1134.061157,671.398010 1134.087891,691.897766 1133.949829,712.395691   C1133.895264,720.502014 1133.009033,728.607117 1133.064941,736.708862   C1133.203735,756.813965 1133.775146,776.915833 1133.954346,797.020996   C1134.043945,807.069092 1131.091797,807.623596 1121.924683,807.114563   C1116.441284,806.810120 1110.929321,807.007874 1105.430176,807.002747   C1095.097412,806.993103 1084.764648,806.981750 1074.431885,807.006042   C1067.051392,807.023438 1064.872681,808.901611 1062.862427,816.322998   C1058.086426,833.954834 1053.229614,851.564819 1048.383179,869.177490   C1047.309326,873.080078 1048.576782,876.022522 1052.004150,877.977966   C1067.088623,886.584106 1082.178955,895.180420 1097.313599,903.697632   C1104.623291,907.810974 1105.740234,910.322876 1101.703369,917.536499   C1094.425903,930.540955 1086.750977,943.322693 1079.272583,956.215210   C1069.823486,972.505188 1060.402466,988.811279 1050.974365,1005.113403   C1043.429810,1018.158691 1036.015747,1031.281616 1028.298340,1044.223755   C1024.733154,1050.202515 1021.884155,1050.740601 1015.600647,1047.153931   C1000.668701,1038.630981 985.716003,1030.136597 970.975342,1021.291138   C966.511414,1018.612427 963.219055,1018.691223 959.845886,1022.616760   C955.007751,1028.246948 950.281311,1034.002686 945.076782,1039.280518   C939.033630,1045.408813 932.530518,1051.084106 926.216125,1056.944214   C923.551697,1059.416992 920.178223,1061.458496 918.414734,1064.454102   C917.211609,1066.497803 917.265930,1070.380981 918.431152,1072.537720   C924.968811,1084.637207 932.020325,1096.458740 938.884216,1108.382324   C941.089966,1112.214111 943.357422,1116.015259 945.418518,1119.924316   C947.786255,1124.415161 946.819153,1128.253662 942.456482,1130.785889   C930.700195,1137.609741 918.819214,1144.218262 907.040405,1151.003662   C889.160645,1161.303711 871.313843,1171.661011 853.475281,1182.032104   C840.593933,1189.521118 827.805786,1197.172607 814.861511,1204.550659   C808.986206,1207.899536 805.335449,1206.556274 801.905090,1200.645020   C793.353760,1185.909058 784.858093,1171.138794 776.115295,1156.516602   C772.387634,1150.282227 770.103760,1149.597900 763.438965,1152.040161   C747.127197,1158.017578 730.470825,1162.567505 713.256165,1165.095825   C706.176636,1166.135620 703.095642,1171.683350 704.180542,1178.683838   C704.923584,1183.477905 704.334900,1188.480957 704.313782,1193.390381   C704.282288,1200.698730 704.120544,1208.008423 704.218933,1215.314819   C704.281067,1219.929199 705.081726,1224.554565 704.884460,1229.146240   C704.673340,1234.061401 700.866821,1236.798462 694.283508,1236.921509   C690.186890,1236.998169 686.076904,1236.051025 681.972107,1236.043701   C641.641174,1235.971436 601.310059,1235.995483 560.979004,1236.006104   C556.111694,1236.007324 551.242432,1236.197021 546.377625,1236.106689   C541.045959,1236.007812 539.993835,1232.366699 539.996216,1227.962036   C540.005493,1210.463013 540.001953,1192.963989 539.999084,1175.464966   C539.997864,1167.959351 539.776001,1167.719727 532.433960,1165.752930   C514.473877,1160.941772 496.537170,1156.041626 478.553314,1151.321167   C474.890625,1150.359863 471.770447,1150.632568 469.429260,1154.859131   C461.497498,1169.177979 453.179382,1183.285767 444.841553,1197.375000   C442.347229,1201.589844 440.623474,1207.413452 433.802216,1205.898682   C431.143890,1205.308228 428.576324,1203.947388 426.188782,1202.557251   C409.210663,1192.671387 392.351440,1182.580444 375.335907,1172.760010   C351.641418,1159.084839 327.836273,1145.601562 304.094574,1132.007935   C297.270111,1128.100464 296.282135,1124.121094 300.216309,1117.472900   C308.973083,1102.674805 317.714935,1087.867554 326.402496,1073.028687   C329.299316,1068.080811 327.549072,1064.636963 322.180481,1059.530884   C310.359528,1048.288330 298.978699,1036.580811 287.488251,1024.993652   C281.355286,1018.808960 280.115631,1017.185364 271.715302,1022.465027   C257.441376,1031.436279 242.641556,1039.574219 228.012085,1047.974243   C223.416748,1050.612793 218.905563,1049.218872 216.353989,1044.800659   C200.300034,1017.002136 184.224716,989.216003 168.147003,961.431335   C159.781128,946.973816 151.382492,932.535278 143.025253,918.072815   C138.999664,911.106445 140.239319,907.803406 147.337509,903.867310   C162.092590,895.685303 176.727509,887.284302 191.341843,878.852051   C196.476364,875.889404 197.106445,872.774475 195.509018,866.899780   C190.843658,849.742371 186.381912,832.528442 181.997879,815.296570   C180.642151,809.967651 177.705414,807.076477 172.000687,807.037048   C156.668945,806.931030 141.335983,807.000122 126.003517,807.002075   C122.808350,807.002441 119.611565,807.078857 116.418434,807.000916   C112.563156,806.906860 111.666687,803.950012 111.059380,800.984802   C110.764450,799.544678 111.000397,797.995300 111.000389,796.495422   C110.999924,748.498108 110.999092,700.500793 111.000908,652.503479   C111.001205,644.570740 112.583771,643.001953 120.576080,643.000732   C137.575119,642.998291 154.574188,643.009888 171.573212,642.994751   C177.628922,642.989319 180.582214,640.337036 182.002747,634.671143   C186.247635,617.739807 190.564911,600.824036 195.128021,583.976379   C197.202881,576.315613 197.020920,574.659790 190.191498,570.649841   C175.221237,561.860107 160.157013,553.229858 145.100861,544.587280   C139.758759,541.520752 138.830978,539.454834 141.575043,534.255493   C148.141144,521.814392 155.697815,509.898376 162.774139,497.723602   C172.237198,481.442535 181.611008,465.109589 191.047699,448.813171   C199.666534,433.929077 208.234695,419.014496 217.000717,404.217377   C220.053757,399.063751 221.941254,398.638123 227.114822,401.627167   C242.280685,410.389252 257.446472,419.158020 272.438782,428.211426   C280.869446,433.302429 283.174652,433.038269 288.783264,425.617645   C299.558990,411.360321 310.480255,397.212280 321.421600,383.081177   C324.843658,378.661469 328.388275,378.867584 331.705780,383.321228   C358.919159,419.853851 386.141815,456.379547 413.375000,492.897339   C418.364197,499.587524 417.879242,502.261749 412.691620,508.929688   C394.655914,532.112000 373.366028,552.854675 358.474762,578.345154   C349.581665,593.567993 342.202209,609.767883 335.232483,625.996704   C327.612305,643.739990 322.834747,662.501770 319.375946,681.493408   C317.644012,691.003174 316.889801,700.710205 316.063354,710.359680   C315.414398,717.936951 314.902496,725.573242 315.084686,733.165222   C315.542725,752.250732 318.029175,771.114136 322.348450,789.729187   C328.302155,815.388672 337.756561,839.746887 350.056091,862.970276   C360.809845,883.274963 373.178101,902.583496 387.852875,920.326782   C393.623657,927.304260 399.604309,934.108215 405.742035,941.242310  z"/>
	<path class="blue" fill="#3d5a80" opacity="1.000000" stroke="none" d=" M680.929749,577.276306   C691.243164,591.637817 701.589966,605.975586 711.861938,620.366699   C725.846069,639.958374 739.966125,659.458618 753.555603,679.321228   C756.157837,683.124573 757.795288,688.417664 757.815674,693.032532   C758.090393,755.357727 758.001770,817.684509 757.997742,880.010925   C757.997253,887.532349 755.482178,890.116760 747.839050,889.969421   C736.733093,889.755371 725.631531,889.093018 714.527344,889.072876   C704.924133,889.055481 695.321960,889.791199 685.715271,889.962280   C677.399292,890.110352 675.001221,887.630371 675.000916,879.524902   C674.999023,833.030090 674.704590,786.531921 675.228882,740.043030   C675.345093,729.740906 672.213806,721.651245 666.322388,713.724731   C654.694885,698.080505 643.457092,682.146240 632.087646,666.310730   C630.183899,663.659180 628.428772,660.901062 626.267273,657.670715   C607.008545,630.842590 588.087646,604.535889 569.166687,578.229187   C556.114929,559.990173 543.064514,541.750244 530.011108,523.512451   C512.384155,498.884674 494.715088,474.286926 477.152496,449.613403   C472.263824,442.745331 469.953522,434.935913 470.011078,426.500061   C470.320984,381.080658 470.666870,335.661499 470.998810,290.242249   C471.007355,289.076141 471.055084,287.906647 470.988586,286.744232   C470.510559,278.386627 465.745636,274.905151 457.440460,276.733276   C456.162872,277.014496 454.802734,276.987549 453.480621,276.989532   C441.485657,277.007355 429.490112,277.055664 417.496399,276.932404   C415.924255,276.916229 413.244598,276.265839 413.028839,275.414703   C412.590607,273.685730 412.911926,271.222473 413.924347,269.754211   C421.265869,259.107056 428.886261,248.652756 436.365143,238.099640   C459.741241,205.114639 483.079468,172.102737 506.471985,139.129379   C509.700134,134.579117 513.847351,134.757568 517.124146,139.359650   C539.533142,170.832016 561.941650,202.304764 584.368286,233.764526   C592.827332,245.630676 601.408813,257.410797 609.730042,269.372375   C610.842468,270.971436 611.314819,273.519562 610.949158,275.408539   C610.790833,276.226379 607.754944,276.918335 606.020325,276.932129   C591.194153,277.050537 576.366577,276.989075 561.539429,277.005035   C554.944397,277.012115 553.030518,278.830536 553.021790,285.577667   C552.975952,320.896179 552.772095,356.217987 553.261108,391.529785   C553.329834,396.492676 556.068054,401.988647 559.009521,406.242981   C571.673340,424.559082 584.875549,442.502838 597.878052,460.584869   C607.048096,473.337250 616.212219,486.093964 625.680054,499.371887   C626.332214,500.768036 626.528198,501.750977 627.057373,502.497833   C637.643494,517.439514 648.212158,532.394287 658.904480,547.259888   C666.150635,557.334167 673.581482,567.275513 680.929749,577.276306  z"/>
	<path class="orange" fill="#ee6c4d" opacity="1.000000" stroke="none" d=" M681.242249,577.102173   C673.581482,567.275513 666.150635,557.334167 658.904480,547.259888   C648.212158,532.394287 637.643494,517.439514 627.057373,502.497833   C626.528198,501.750977 626.332214,500.768036 625.990845,499.530518   C645.815491,471.137482 665.722412,443.173279 685.370850,415.028595   C689.502869,409.109833 694.382812,402.907043 695.889343,396.158997   C697.924316,387.044189 697.057129,377.276245 697.366333,367.786316   C697.419556,366.152191 697.017151,364.506927 697.016479,362.866760   C696.996399,311.545258 696.936707,260.223633 697.045654,208.902328   C697.072021,196.473938 697.766907,184.048141 697.939087,171.618164   C697.991028,167.870926 697.656128,164.042465 696.887817,160.379288   C695.966797,155.988449 692.925354,153.940109 688.285278,153.964386   C671.124573,154.054153 653.963135,154.000092 635.768372,154.000092   C638.346985,150.222900 640.499084,146.924683 642.795166,143.729904   C663.330444,115.157021 683.929810,86.630127 704.426880,58.029907   C713.719727,45.063267 722.821594,31.959812 732.021301,18.926319   C732.587463,18.124144 733.206055,17.348297 733.877991,16.633272   C738.599426,11.609153 740.749695,11.716649 744.698425,17.317955   C750.510071,25.562050 756.157776,33.922958 762.039490,42.116268   C782.085693,70.040878 802.214539,97.906113 822.286438,125.812286   C827.132568,132.549805 832.064575,139.239731 836.544556,146.216431   C837.663574,147.959061 837.926758,151.042969 837.144287,152.905991   C836.703247,153.956024 833.337769,153.873779 831.267761,154.108658   C829.962463,154.256775 828.616760,154.007523 827.289124,154.006363   C814.958618,153.995590 802.613647,154.362122 790.302917,153.868484   C782.523926,153.556564 780.477417,158.714920 780.015320,163.981339   C779.913757,165.138824 780.000000,166.312820 780.000000,167.479218   C780.000000,254.959061 779.887817,342.439301 780.188416,429.918121   C780.215942,437.919067 777.704956,444.151794 773.274475,450.244141   C758.805664,470.140228 744.385498,490.071930 730.003357,510.030792   C714.291931,531.834473 698.645508,553.684998 682.956970,575.505127   C682.572876,576.039307 682.025818,576.456360 681.242249,577.102173  z"/>
	<path class="orange" fill="#ee6c4d" opacity="1.000000" stroke="none" d=" M568.980835,578.516846   C588.087646,604.535889 607.008545,630.842590 625.964478,657.491699   C611.073669,677.980225 596.126587,698.110596 581.237305,718.283813   C577.541138,723.291748 575.940979,728.932983 575.952454,735.233459   C576.039429,783.045898 576.001221,830.858582 575.998962,878.671143   C575.998535,887.788635 573.792969,890.124390 564.703491,889.961182   C556.273315,889.809753 547.847717,889.035278 539.422363,889.071533   C527.495728,889.122864 515.572876,889.761414 503.645264,889.967407   C495.446289,890.109009 493.006561,887.604431 493.005310,879.519165   C492.995697,816.879700 493.028290,754.240234 492.966827,691.600830   C492.958435,683.054993 498.231140,677.144531 502.714417,670.848755   C513.012756,656.387146 523.472473,642.040588 533.860291,627.642639   C545.105652,612.056152 556.345947,596.466064 567.577026,580.869385   C568.042053,580.223633 568.391663,579.494690 568.980835,578.516846  z"/>
</svg>