<svg xmlns="http://www.w3.org/2000/svg" role="img" viewBox="-7.67 -7.42 399.10 76.10"><title>cncf-white-logo.svg</title><g fill="#fff" clip-path="url(#clip0_5012_17545)"><path d="M91.1991 26.8831C92.6719 26.9123 94.1306 26.5912 95.4547 25.9462 96.7789 25.3012 97.9305 24.3508 98.8147 23.1735L102.908 27.3587C99.6715 30.9732 95.9589 32.7805 91.5799 32.7805 89.6038 32.8558 87.6328 32.5324 85.7846 31.8297 83.9364 31.127 82.2489 30.0593 80.8228 28.6904 79.4342 27.3538 78.3433 25.7395 77.6216 23.9529 76.8998 22.1664 76.5634 20.2478 76.6343 18.3225 76.58 16.3766 76.9331 14.4409 77.6707 12.6392 78.4084 10.8374 79.5144 9.2095 80.918 7.85952 82.4277 6.43625 84.2104 5.33338 86.1585 4.61748 88.1065 3.90157 90.1795 3.58748 92.2524 3.69415 94.3253 3.80082 96.355 4.32605 98.2191 5.23813 100.083 6.15021 101.743 7.43023 103.099 9.00094L99.1955 13.4715C98.3356 12.3147 97.2155 11.3762 95.9257 10.7318 94.6358 10.0874 93.2124 9.75516 91.7703 9.76188 89.5224 9.71866 87.343 10.5353 85.6778 12.0447 84.8137 12.8378 84.1353 13.8117 83.691 14.8968 83.2467 15.9819 83.0475 17.1516 83.1075 18.3225 83.0473 19.4909 83.2275 20.6592 83.6368 21.7553 84.0461 22.8514 84.676 23.852 85.4874 24.6954 87.0537 26.1075 89.0895 26.8873 91.1991 26.8831zM107.859 32.3998V4.14978H114.142V26.7879H126.232V32.3998H107.859zM153.837 28.5001C150.976 31.1887 147.197 32.6857 143.27 32.6857 139.343 32.6857 135.564 31.1887 132.703 28.5001 131.308 27.1635 130.207 25.5515 129.47 23.7666 128.732 21.9816 128.374 20.0628 128.419 18.1323 128.366 16.2005 128.719 14.2791 129.457 12.4929 130.195 10.7066 131.301 9.09556 132.703 7.76439 135.564 5.07578 139.343 3.5788 143.27 3.5788 147.197 3.5788 150.976 5.07578 153.837 7.76439 155.231 9.10098 156.333 10.713 157.07 12.498 157.808 14.2829 158.165 16.2017 158.12 18.1323 158.174 20.064 157.821 21.9854 157.083 23.7717 156.345 25.5579 155.239 27.169 153.837 28.5001zM151.647 18.1323C151.665 15.7421 150.781 13.4329 149.172 11.6642 148.414 10.8261 147.489 10.1561 146.456 9.69758 145.423 9.23903 144.305 9.0021 143.175 9.0021 142.044 9.0021 140.926 9.23903 139.893 9.69758 138.86 10.1561 137.935 10.8261 137.177 11.6642 135.55 13.4217 134.664 15.7383 134.702 18.1323 134.685 20.5224 135.568 22.8316 137.177 24.6003 137.935 25.4384 138.86 26.1084 139.893 26.5669 140.926 27.0255 142.044 27.2624 143.175 27.2624 144.305 27.2624 145.423 27.0255 146.456 26.5669 147.489 26.1084 148.414 25.4384 149.172 24.6003 149.996 23.7423 150.64 22.7278 151.065 21.6169 151.491 20.5059 151.688 19.321 151.647 18.1323zM170.973 25.1709C171.475 25.8214 172.127 26.3423 172.872 26.6898 173.617 27.0373 174.435 27.2014 175.257 27.1684 176.066 27.2113 176.874 27.0511 177.605 26.7021 178.337 26.3532 178.97 25.8268 179.445 25.1709 180.539 23.6173 181.075 21.7405 180.968 19.8443V4.24493H187.251V20.0345C187.251 24.1246 186.109 27.2635 183.824 29.4512 182.674 30.5533 181.316 31.4153 179.828 31.9869 178.341 32.5585 176.754 32.8283 175.162 32.7804 173.554 32.8283 171.953 32.5589 170.451 31.9876 168.948 31.4164 167.573 30.5544 166.404 29.4512 164.119 27.2635 162.977 24.1246 162.977 20.0345V4.24493H169.259V19.8443C169.257 21.7554 169.857 23.6188 170.973 25.1709zM215.43 7.85938C218.095 10.3325 219.523 13.7567 219.523 18.1321 219.523 22.5076 218.19 26.0269 215.62 28.5951 213.05 31.1633 208.956 32.3998 203.625 32.3998H193.82V4.14978H203.816C208.861 4.14978 212.764 5.38632 215.43 7.85938zM210.86 24.6953C212.383 23.2685 213.145 21.0808 213.145 18.3224 213.145 15.5639 212.383 13.3762 210.86 11.9495 209.337 10.5227 206.957 9.66663 203.721 9.66663H200.198V26.883H204.197C206.613 27.0116 208.991 26.2311 210.86 24.6953zM255.41 4.14978H261.693V32.3998H255.41L241.892 14.7079V32.3998H235.609V4.14978H241.511L255.41 22.3173V4.14978zM288.825 32.3998L286.16 26.3123H274.26L271.595 32.3998H264.836L277.021 4.14978H283.113L295.298 32.3998H288.825zM280.353 12.6153L276.83 20.7954H283.875L280.353 12.6153zM308.81 9.66666V32.495H302.528V9.66666H294.531V4.24493H316.902V9.66666H308.81zM321.379 4.14978H327.662V32.3998H321.379V4.14978zM345.082 22.1271L352.317 4.14978H359.171L347.843 32.3998H342.512L331.184 4.14978H338.038L345.082 22.1271zM382.876 4.14978V9.76174H368.787V15.5639H381.448V20.9857H368.787V26.883H383.352V32.495H362.504V4.2449H382.876V4.14978zM83.9603 56.4648C84.7893 56.4805 85.6101 56.2989 86.3549 55.9351 87.0998 55.5712 87.7473 55.0355 88.2441 54.3722L90.5288 56.7501C89.7531 57.6927 88.78 58.4538 87.678 58.9797 86.576 59.5056 85.3719 59.7836 84.1507 59.7939 83.0482 59.8411 81.9477 59.6629 80.9164 59.2704 79.8852 58.8779 78.945 58.2792 78.1534 57.5111 77.3703 56.7658 76.7536 55.8637 76.3434 54.8639 75.9333 53.864 75.7391 52.7889 75.7735 51.7089 75.7387 50.6147 75.9324 49.5252 76.3421 48.5099 76.7519 47.4946 77.3687 46.5756 78.1534 45.8115 78.9236 45.0349 79.8442 44.4235 80.8591 44.0146 81.8739 43.6057 82.9616 43.408 84.0555 43.4336 85.2997 43.4142 86.533 43.6682 87.668 44.1778 88.8031 44.6873 89.8122 45.4399 90.6239 46.3823L88.4345 48.8553C87.957 48.1948 87.3267 47.6595 86.5973 47.2951 85.868 46.9308 85.0612 46.7481 84.2459 46.7627 82.9755 46.7544 81.7498 47.2306 80.8188 48.0944 80.3358 48.5395 79.9573 49.0858 79.7104 49.6943 79.4636 50.3027 79.3545 50.9582 79.3909 51.6137 79.3618 52.2601 79.465 52.9056 79.6941 53.5107 79.9233 54.1159 80.2736 54.6679 80.7237 55.1331 81.1347 55.5757 81.6369 55.9239 82.1957 56.1538 82.7545 56.3837 83.3565 56.4898 83.9603 56.4648zM106.236 57.416C104.654 58.9483 102.536 59.8018 100.334 59.794 99.2384 59.8287 98.1481 59.6352 97.1319 59.2258 96.1158 58.8164 95.1961 58.2 94.4314 57.416 92.9059 55.8695 92.0508 53.7852 92.0508 51.6138 92.0508 49.4424 92.9059 47.3581 94.4314 45.8116 96.0126 44.2793 98.1309 43.4258 100.334 43.4337 101.429 43.3989 102.519 43.5924 103.535 44.0018 104.551 44.4112 105.471 45.0276 106.236 45.8116 107.761 47.3581 108.616 49.4424 108.616 51.6138 108.616 53.7852 107.761 55.8695 106.236 57.416zM105.093 51.6138C105.12 50.2844 104.644 48.9939 103.761 47.9993 103.341 47.5292 102.828 47.1513 102.254 46.8893 101.681 46.6274 101.059 46.4871 100.429 46.4774 99.7933 46.4558 99.1616 46.5821 98.5834 46.8462 98.0052 47.1103 97.4963 47.5051 97.0969 47.9993 96.6409 48.4799 96.2876 49.0482 96.0585 49.6696 95.8293 50.291 95.7292 50.9525 95.7642 51.6138 95.755 52.9403 96.2287 54.2248 97.0969 55.2283 97.5168 55.6984 98.0296 56.0763 98.6031 56.3383 99.1766 56.6002 99.7982 56.7405 100.429 56.7502 101.064 56.7718 101.696 56.6456 102.274 56.3814 102.852 56.1173 103.361 55.7226 103.761 55.2283 104.644 54.2337 105.12 52.9432 105.093 51.6138zM125.848 49.6162L121.564 58.2719H119.47L115.186 49.6162V59.6036H111.664V43.7189H116.424L120.517 52.3746 124.611 43.7189H129.37V59.6036H125.848V49.6162zM144.219 45.2408C144.821 45.7906 145.288 46.471 145.585 47.2295 145.882 47.988 146.001 48.8045 145.933 49.6162 145.933 51.6137 145.362 53.0404 144.219 53.8965 143.077 54.8477 141.364 55.2282 138.984 55.2282H136.889V59.6036H133.367V43.7189H138.984C141.364 43.814 143.077 44.2896 144.219 45.2408zM141.649 51.4234C142.109 50.8253 142.345 50.0848 142.316 49.3308 142.357 48.9661 142.299 48.597 142.148 48.2623 141.997 47.9276 141.759 47.6396 141.459 47.4285 140.674 46.9961 139.782 46.798 138.888 46.8578H136.889V52.1844H139.269C139.697 52.222 140.127 52.1741 140.536 52.0434 140.945 51.9127 141.323 51.702 141.649 51.4234zM152.883 55.5135C153.168 55.8704 153.53 56.1585 153.942 56.3565 154.354 56.5545 154.805 56.6573 155.263 56.6573 155.72 56.6573 156.171 56.5545 156.583 56.3565 156.995 56.1585 157.357 55.8704 157.642 55.5135 158.262 54.624 158.564 53.5517 158.499 52.4698V43.7189H162.021V52.5649C162.076 53.5348 161.936 54.5058 161.609 55.4206 161.282 56.3354 160.775 57.1756 160.117 57.8915 158.771 59.0717 157.036 59.7145 155.244 59.697 153.453 59.6794 151.731 59.0028 150.408 57.7964 149.75 57.0805 149.243 56.2403 148.916 55.3255 148.589 54.4106 148.449 53.4397 148.504 52.4698V43.6238H152.026V52.3746C151.933 53.489 152.237 54.6004 152.883 55.5135zM172.399 46.8579V59.6037H168.877V46.8579H164.402V43.8141H176.968V46.8579H172.399zM179.539 43.8141H183.061V59.6989H179.539V43.8141zM198.007 43.8141H201.53V59.6989H198.007L190.487 49.8066V59.6989H186.965V43.8141H190.297L198.103 53.9918V43.8141H198.007zM215.809 51.6137H219.331V57.2257C218.49 58.1122 217.468 58.8086 216.335 59.2679 215.202 59.7273 213.984 59.9391 212.762 59.889 210.571 59.9315 208.452 59.1116 206.86 57.6061 206.077 56.8609 205.46 55.9588 205.05 54.9589 204.64 53.9591 204.446 52.884 204.48 51.8039 204.46 50.7197 204.657 49.6423 205.06 48.6353 205.463 47.6283 206.064 46.7122 206.827 45.941 207.59 45.1697 208.5 44.5589 209.503 44.1446 210.506 43.7303 211.582 43.5209 212.667 43.5287 214.858 43.4862 216.978 44.3061 218.569 45.8115L216.761 48.4748C216.213 47.8965 215.524 47.4704 214.762 47.2383 214.151 47.0117 213.508 46.8833 212.858 46.8578 211.587 46.8495 210.362 47.3257 209.431 48.1895 208.951 48.6575 208.576 49.2215 208.33 49.8443 208.084 50.4672 207.973 51.135 208.003 51.8039 207.959 53.1362 208.437 54.433 209.335 55.4184 209.741 55.8423 210.229 56.179 210.769 56.408 211.309 56.6369 211.89 56.7533 212.477 56.7501 213.534 56.8108 214.588 56.5805 215.523 56.0843V51.6137H215.809zM239.321 43.8141V46.953H231.991V50.3773H238.94V53.5162H231.991V59.6989H228.469V43.8141H239.321zM255.693 57.416C254.112 58.9483 251.993 59.8018 249.791 59.794 248.695 59.8287 247.605 59.6352 246.589 59.2258 245.573 58.8164 244.653 58.2 243.888 57.416 242.363 55.8695 241.508 53.7852 241.508 51.6138 241.508 49.4424 242.363 47.3581 243.888 45.8116 245.47 44.2793 247.588 43.4258 249.791 43.4337 250.886 43.3989 251.976 43.5924 252.992 44.0018 254.008 44.4112 254.928 45.0276 255.693 45.8116 257.218 47.3581 258.073 49.4424 258.073 51.6138 258.073 53.7852 257.218 55.8695 255.693 57.416zM254.455 51.6138C254.481 50.2844 254.006 48.9939 253.122 47.9993 252.703 47.5292 252.19 47.1513 251.616 46.8893 251.043 46.6274 250.421 46.4871 249.791 46.4774 249.155 46.4558 248.523 46.5821 247.945 46.8462 247.367 47.1103 246.858 47.5051 246.459 47.9993 246.003 48.4799 245.649 49.0482 245.42 49.6696 245.191 50.291 245.091 50.9525 245.126 51.6138 245.117 52.9403 245.591 54.2248 246.459 55.2283 246.879 55.6984 247.391 56.0763 247.965 56.3383 248.538 56.6002 249.16 56.7405 249.791 56.7502 250.426 56.7718 251.058 56.6456 251.636 56.3814 252.214 56.1173 252.723 55.7226 253.122 55.2283 253.578 54.7477 253.932 54.1794 254.161 53.558 254.39 52.9366 254.49 52.2751 254.455 51.6138zM265.308 55.5135C265.594 55.8704 265.956 56.1585 266.368 56.3565 266.78 56.5545 267.231 56.6573 267.688 56.6573 268.145 56.6573 268.597 56.5545 269.009 56.3565 269.421 56.1585 269.783 55.8704 270.068 55.5135 270.688 54.624 270.99 53.5517 270.925 52.4698V43.7189H274.447V52.5649C274.502 53.5348 274.361 54.5058 274.034 55.4206 273.707 56.3354 273.2 57.1756 272.543 57.8915 271.196 59.0717 269.461 59.7145 267.67 59.697 265.879 59.6794 264.157 59.0028 262.833 57.7964 262.176 57.0805 261.669 56.2403 261.342 55.3255 261.015 54.4106 260.875 53.4397 260.929 52.4698V43.6238H264.452V52.3746C264.313 53.4928 264.62 54.6207 265.308 55.5135zM289.203 43.8141H292.725V59.6989H289.203L281.682 49.8066V59.6989H278.16V43.8141H281.492L289.298 53.9918V43.8141H289.203zM308.719 45.9067C309.492 46.6545 310.097 47.5593 310.491 48.5602 310.885 49.5611 311.06 50.6348 311.003 51.7089 311.054 52.7741 310.885 53.8384 310.509 54.8362 310.132 55.834 309.555 56.7443 308.814 57.5111 307.386 58.9379 305.101 59.6989 302.055 59.6989H296.629V43.8141H302.245C305.101 43.8141 307.291 44.48 308.719 45.9067zM306.148 55.3234C306.598 54.8582 306.949 54.3062 307.178 53.701 307.407 53.0959 307.51 52.4504 307.481 51.8041 307.511 51.1433 307.409 50.4831 307.18 49.8624 306.951 49.2417 306.6 48.673 306.148 48.1896 305.597 47.7302 304.959 47.3844 304.273 47.1722 303.587 46.9599 302.865 46.8855 302.15 46.953H300.151V56.56H302.436C303.777 56.5771 305.085 56.1415 306.148 55.3234zM324.902 59.6036L323.474 56.1793H316.81L315.382 59.6036H311.574L318.428 43.7189H321.855L328.709 59.6036H324.902zM320.142 48.4748L318.143 53.0404H322.141L320.142 48.4748zM336.135 46.8579V59.6037H332.612V46.8579H328.043V43.8141H340.609V46.8579H336.135zM343.18 43.8141H346.702V59.6989H343.18V43.8141zM363.931 57.416C362.35 58.9483 360.231 59.8018 358.029 59.794 356.934 59.8287 355.843 59.6352 354.827 59.2258 353.811 58.8164 352.891 58.2 352.127 57.416 350.601 55.8695 349.746 53.7852 349.746 51.6138 349.746 49.4424 350.601 47.3581 352.127 45.8116 353.708 44.2793 355.826 43.4258 358.029 43.4337 359.124 43.3989 360.214 43.5924 361.23 44.0018 362.247 44.4112 363.166 45.0276 363.931 45.8116 365.456 47.3581 366.312 49.4424 366.312 51.6138 366.312 53.7852 365.456 55.8695 363.931 57.416zM362.789 51.6138C362.815 50.2844 362.339 48.9939 361.456 47.9993 361.036 47.5292 360.523 47.1513 359.95 46.8893 359.376 46.6274 358.755 46.4871 358.124 46.4774 357.489 46.4558 356.857 46.5821 356.279 46.8462 355.7 47.1103 355.192 47.5051 354.792 47.9993 354.336 48.4799 353.983 49.0482 353.754 49.6696 353.525 50.291 353.424 50.9525 353.459 51.6138 353.45 52.9403 353.924 54.2248 354.792 55.2283 355.212 55.6984 355.725 56.0763 356.298 56.3383 356.872 56.6002 357.494 56.7405 358.124 56.7502 358.759 56.7718 359.391 56.6456 359.969 56.3814 360.548 56.1173 361.056 55.7226 361.456 55.2283 362.339 54.2337 362.815 52.9432 362.789 51.6138zM380.398 43.8141H383.92V59.6989H380.398L372.878 49.8066V59.6989H369.355V43.8141H372.687L380.493 53.9918 380.398 43.8141zM8.66276 40.7988H0V61.1256H20.2766V52.3842H8.66276V40.7988zM52.2622 40.8939V52.3842H40.6484V61.1256H60.925V40.7988H52.167L52.2622 40.8939zM0 20.5767H8.75795L8.66276 20.4816V8.99135H20.2766V.25H0V20.5767zM40.6484.25V8.99135H52.2622V20.5767H60.925V.25H40.6484z"/><g opacity=".8"><path d="M39.5068 20.5767L27.893 8.99135H40.6491V.25H20.2773V8.99135L31.8911 20.5767H39.5068zM29.0353 40.7988H21.4197L31.0344 50.3962 32.9383 52.3842H20.2773V61.1256H40.6491V52.2891L34.8422 46.582 29.0353 40.7988zM52.2622 20.5767V33.2084L50.2631 31.2109 40.6484 21.6135V29.3086L46.3601 35.0156 52.167 40.8083H60.925V20.5767H52.2622zM20.2766 32.067L8.75795 20.5767H0V40.7988H8.66276V28.1671L20.2766 39.762V32.067z" opacity=".8"/></g></g><defs><clipPath id="clip0_5012_17545"><path fill="#fff" d="M0 0H383.922V60.876H0z" transform="translate(0 .25)"/></clipPath></defs></svg>