<svg class="w-8 h-h text-primary" viewBox="0 0 45 45" version="1.1" xmlns="http://www.w3.org/2000/svg" xmlns:xlink="http://www.w3.org/1999/xlink">
    <g id="Page-1" stroke="none" stroke-width="1" fill="none" fill-rule="evenodd">
        <g id="foxflow-mark-color">
            <path d="M44.8793143,4.50390095 C44.8688654,4.48958647 32.9846856,-5.6119831 22.4449635,4.48958647 C11.9052414,14.591156 0.0210617731,4.48958647 0.0210617731,4.48958647 L22.4028738,44.8918766 L44.8793143,4.50390095 L44.8793143,4.50390095 Z" id="Line" fill="#F7C75F"></path>
            <path d="M44.8793143,4.50390095 C44.8688654,4.48958647 32.9846856,-5.6119831 22.4449635,4.48958647 C11.9052414,14.591156 0.0210617731,4.48958647 0.0210617731,4.48958647 L22.4028738,44.8918766 L44.8793143,4.50390095 L44.8793143,4.50390095 Z" id="Line" fill-opacity="0.60583673" fill="#F6A623"></path>
            <polygon id="Rectangle-2" fill="#E7E7E7" points="22.3922808 22.63688 34.8383218 22.63688 22.3922808 44.8830198"></polygon>
            <polygon id="Rectangle-2-Copy" fill="#9A9C9D" transform="translate(16.193093, 33.759950) scale(-1, 1) translate(-16.193093, -33.759950) " points="9.99920166 22.63688 22.3869843 22.63688 9.99920166 44.8830198"></polygon>
            <polygon id="Rectangle" fill="#00558B" points="5.93173017 15.1607182 22.4028738 15.1607182 22.4028738 23.6788537 10.5614947 23.6788537"></polygon>
            <polygon id="Rectangle-Copy" fill="#007BBB" points="22.4028738 15.1607182 22.4028738 23.6788537 34.2460896 23.6788537 38.9534602 15.1607182"></polygon>
        </g>
    </g>
</svg>
