<svg version="1.2" xmlns="http://www.w3.org/2000/svg" viewBox="0 0 490 504" width="490" height="504">
	<title>image</title>
	<style>
		.s0 { fill: #ffffff } 
	</style>
	<g id="Layer 1">
		<path id="Path 1" class="s0" d="m455 441.5v38.5h16v-77h-16z"/>
		<path id="Path 2" class="s0" d="m379 441.5v38.5h58v-15h-42v-18h28v-14h-28v-15l40.5-0.5 0.5-14.5h-57z"/>
		<path id="Path 3" class="s0" d="m254 403.8c0 0.4 6 17.7 13.2 38.5l13.3 37.8 13-0.1c11.3-32.9 15.2-43.9 15.9-45.5 1-2.2 1.5-2.6 2-1.5 0.3 0.8 4 11.4 8.1 23.5 4.2 12.1 7.8 22.3 8.1 22.7 0.2 0.5 3.3 0.8 6.9 0.8 3.6 0 6.5-0.1 6.5-0.3 0-0.1 5.8-17 13-37.5 7.1-20.4 13-37.6 13-38.2 0-0.6-3.2-0.9-8.2-0.8l-8.1 0.3c-12.9 39.4-16.7 49.4-17.1 48.5-0.3-0.8-4.1-12.1-8.4-25l-7.9-23.5-13.3-0.5c-12.8 38.7-16.8 49.6-17.1 49.2-0.4-0.4-4.2-11.6-8.5-25l-7.9-24.2c-12.8 0-16.5 0.3-16.5 0.7z"/>
		<path id="Path 4" fill-rule="evenodd" class="s0" d="m212.5 403h7c6.7-0.1 7.1 0.1 8.4 2.7 0.7 1.5 5.4 12 10.3 23.3 5 11.3 11.9 27.1 15.4 35.3 3.5 8.1 6.4 14.9 6.4 15.2 0 0.3-3.7 0.5-16.5 0.5l-7-16.1-34 0.1-7.5 16h-8c-4.4 0-7.9-0.4-7.8-0.9 0.2-0.5 7.7-17.9 16.8-38.5zm1.7 33c-2.9 6.6-5.2 12.4-5.2 13 0 0.6 4.2 1 10.5 1 6.3 0 10.5-0.4 10.5-1 0-0.6-2.3-6.3-5.1-12.8-2.8-6.4-5.2-11.8-5.3-12-0.1-0.1-2.5 5.2-5.4 11.8z"/>
		<path id="Path 6" class="s0" d="m106 427.8c0 18.8 0.3 26.1 1.5 30.4 0.8 3.2 2.7 7.7 4.3 9.9 1.5 2.3 4.5 5.4 6.7 6.9 2.2 1.5 5.8 3.3 8 4.1 2.3 0.8 7.9 1.3 13 1.3 7.1 0 10-0.5 14-2.3 2.8-1.2 6.5-3.3 8.3-4.7 1.8-1.4 4.6-5.2 6.4-9.1l3.3-6.7 0.1-54.6h-15.9c-0.2 51.4-0.2 51.5-2.7 55.4-1.5 2.4-3.9 4.6-6 5.4-1.9 0.8-5.5 1.5-8 1.5-2.6 0-6.2-0.8-8.5-2-2.2-1.1-4.9-3.5-6-5.4-1.8-3.1-2-5.5-2.3-29.2l-0.2-25.7h-16z"/>
		<path id="Path 7" class="s0" d="m19 441.5v38.5h16v-31h34l0.5 30.5 15.5 0.5v-77h-16v31h-34v-31h-16z"/>
		<path id="Path 8" class="s0" d="m289.2 313.7c0.1 1 5 5 10.8 9.1 5.8 4 16.4 11 23.5 15.5 7.1 4.4 16.6 10 21 12.3 4.4 2.4 10.7 5.2 14 6.4 4.2 1.4 8.5 2 14 2 5.9 0 9.8-0.7 15-2.5 3.9-1.4 9.5-4.2 12.5-6.2 3-2 8.4-6.6 12-10.2 3.6-3.7 8.9-10.1 11.8-14.4 2.8-4.2 5.2-8.1 5.2-8.7 0-0.6-3.3-1-7.7-1-4.3 0-32.1-0.9-61.8-2-29.7-1.1-57.8-2-62.3-2-7.4 0-8.3 0.2-8 1.7z"/>
		<path id="Path 9" class="s0" d="m126.5 314.1c-25.3 0.9-50.6 1.8-56.3 1.8-7.4 0.1-10.2 0.4-10.2 1.3 0 0.7 2.3 4.7 5.1 8.8 2.9 4.1 8.6 10.9 12.8 15.1 4.2 4.1 10.5 9.1 14.1 11.1 3.6 2 9 4.3 12 5.2 3.1 0.9 9 1.6 13.5 1.6 6.5-0.1 9.5-0.6 15.5-3 4.1-1.7 12.4-5.8 18.4-9.3 6-3.4 19.2-11.8 29.5-18.7 10.7-7.2 18.7-13.2 18.8-14.3 0.3-1.6-0.9-1.7-13.5-1.6-7.5 0.1-34.4 1-59.7 2z"/>
		<path id="Path 10" class="s0" d="m461.5 195.9c-1.6 1-12.7 7.1-24.5 13.6-11.8 6.5-35.4 19.8-52.5 29.6-17.1 9.7-38.6 22.3-48 27.9-9.4 5.6-23.3 14.2-31 19.1-7.7 4.9-15.4 10-17 11.4-2.5 2.1-2.8 2.6-1.5 3.5 1 0.7 19.9 0.9 58 0.7 53.7-0.3 56.9-0.4 64-2.4 4.1-1.2 9.5-3 12-4.1 2.5-1 7.2-3.6 10.5-5.7 3.3-2.1 8.4-5.9 11.4-8.4 2.9-2.5 7.7-7.7 10.6-11.6 2.9-3.9 6.6-9.7 8.3-13 1.6-3.3 4-9.4 5.3-13.5 2.1-6.5 2.4-9.5 2.4-23 0-8.9-0.5-17.7-1.3-20.8-0.7-2.9-1.7-5.2-2.5-5.1-0.6 0-2.6 0.9-4.2 1.8z"/>
		<path id="Path 11" class="s0" d="m21 197.8c-0.6 2-1.5 7.5-2.1 12.2-0.5 4.7-0.7 11.4-0.4 15 0.4 3.6 1.6 10.3 2.6 15 1.2 4.9 3.9 12.1 6.4 17 2.4 4.7 7 11.6 10.2 15.4 3.2 3.8 9 9.4 12.8 12.3 3.8 3 10.2 6.9 14 8.8 3.8 1.9 10.6 4.4 15 5.7 7.8 2.1 9.6 2.2 64.5 2.6 50.7 0.3 56.6 0.2 57.8-1.2 1-1.4-0.5-2.7-11.5-10-7.1-4.6-22.7-14.3-34.8-21.6-12.1-7.3-34.4-20.3-49.5-29-15.1-8.7-37.8-21.5-50.5-28.5-12.7-7-25-13.8-27.5-15.1-2.5-1.4-4.8-2.4-5.2-2.4-0.4 0-1.2 1.7-1.8 3.7z"/>
		<path id="Path 12" class="s0" d="m392.8 88.8c-4.1 5.3-12.7 16.9-19 25.7-6.3 8.8-16 22.8-21.5 31-5.5 8.3-14 21.5-19 29.5-5 8-14.2 23.5-20.5 34.5-6.3 11-17.5 32-24.9 46.7-10.8 21.6-13.2 27-12.1 28 1 1.1 2.1 0.9 6-1 2.6-1.3 14.4-7.6 26.2-13.9 11.8-6.4 29.4-16.3 39-22.1 9.6-5.7 22.4-13.7 28.5-17.7 6-4 15.7-10.8 21.5-15.1 5.8-4.3 14.6-11.9 19.5-16.9 5-4.9 10.6-11.7 12.5-15 1.9-3.3 4.5-8.9 5.8-12.5 1.7-4.5 2.6-9.6 2.9-16.5 0.5-8.2 0.2-11.6-1.6-18.5-1.1-4.7-4-12.3-6.2-17-2.2-4.7-6.7-12.3-9.9-17-3.2-4.7-8.6-11.5-11.9-15.3-3.4-3.7-6.5-6.7-6.9-6.7-0.4 0-4.2 4.4-8.4 9.8z"/>
		<path id="Path 13" class="s0" d="m80.5 86.3c-3.7 3.9-9.4 11.3-12.7 16.2-3.3 4.9-7.5 12.2-9.4 16-1.8 3.8-4.3 10.8-5.5 15.5-1.8 6.9-2.1 10.4-1.7 19 0.4 7.6 1.2 12.4 2.9 17.5 1.4 3.8 4.6 10.1 7.1 14 2.5 3.9 8.2 10.5 12.7 14.8 4.5 4.2 13.7 11.9 20.5 17 6.9 5 18.5 13 25.8 17.7 7.3 4.6 19.8 12.2 27.8 16.8 8 4.6 21.7 12.4 30.5 17.2 8.8 4.8 19.7 10.6 24.3 12.9 4.5 2.2 8.6 4.1 9.2 4.1 0.6 0 1-1 1-2.2 0-1.3-4-10.4-8.8-20.3-4.9-9.9-13.4-26.3-18.9-36.5-5.5-10.2-15.3-27.3-21.8-38-6.4-10.7-17.3-27.8-24-38-6.7-10.2-17.2-25.3-23.1-33.7-6-8.3-14.7-20.1-19.4-26.2-4.7-6.1-8.8-11.1-9.2-11.1-0.3 0-3.6 3.3-7.3 7.3z"/>
		<path id="Path 14" class="s0" d="m276.2 20.3c-0.5 0.6-2.1 3.4-3.5 6.2-1.3 2.7-3.7 8.4-5.1 12.5-1.5 4.1-4 12.7-5.6 19-1.7 6.3-4.1 18.5-5.4 27-1.3 8.5-3 21.8-3.8 29.5-0.9 9.5-1.3 28.9-1.3 60 0.1 34.3 0.5 51.2 1.8 66.5 0.9 11.3 2 23.1 2.5 26.3 0.5 4.5 1.1 5.7 2.5 5.7 1.1 0 5.4-5.7 12.5-16.8 6-9.2 12.6-19.4 14.7-22.7 2.1-3.3 8.1-13.2 13.3-22 5.3-8.8 14.2-25 19.8-36 5.7-11 12.5-25.2 15.2-31.5 2.7-6.3 6.3-15.8 8-21 1.6-5.2 3.7-13.8 4.6-19 0.9-5.2 1.6-14 1.6-19.5 0-7.3-0.5-11.9-2.1-17-1.1-3.8-3.7-9.9-5.7-13.5-2-3.7-6.8-9.7-11.1-14.1-5.8-5.8-9.6-8.6-16.1-11.8-5.4-2.6-12.5-5-19.5-6.6-6-1.4-12.2-2.5-13.6-2.5-1.5 0-3.1 0.6-3.7 1.2z"/>
		<path id="Path 15" class="s0" d="m195.5 21.5c-5.5 1.3-11.8 3-14 3.8-2.2 0.8-6.9 3.2-10.5 5.5-3.6 2.2-9.4 7.1-13 10.9-3.6 3.7-8.1 10-10.2 13.8-2 3.9-4.4 9.9-5.3 13.5-1.4 5.2-1.6 9.4-1.2 20.5 0.4 10.8 1.1 16.4 3.2 24.5 1.5 5.8 5 16.3 7.8 23.5 2.8 7.2 9.8 22.4 15.7 34 5.8 11.6 16.9 31.4 24.5 44 7.6 12.6 18.9 30.6 25 40 6.2 9.4 12 17.3 12.9 17.8 1 0.4 1.8 0.2 2.1-0.6 0.2-0.6 1.1-9.8 2-20.2 0.8-10.4 2-26.9 2.5-36.5 0.5-9.6 1-29.4 1-44 0-14.6-0.5-33.7-1-42.5-0.6-8.8-1.7-21.6-2.6-28.5-0.8-6.9-2.3-17.6-3.4-23.8-1.1-6.1-3.4-16.3-5.1-22.5-1.6-6.1-4.6-15.2-6.6-20.2-2-5-4.5-10.5-5.5-12.3-1.5-2.6-2.4-3.2-5.1-3.1-1.7 0-7.7 1.1-13.2 2.4z"/>
	</g>
</svg>